<?xml version="1.0" encoding="UTF-8"?>
<svg width="29px" height="24px" viewBox="0 0 29 24" version="1.1" xmlns="http://www.w3.org/2000/svg" xmlns:xlink="http://www.w3.org/1999/xlink">
    <!-- Generator: Sketch 46 (44423) - http://www.bohemiancoding.com/sketch -->
    <title>Twitter_Logo_WhiteOnBlue</title>
    <desc>Created with Sketch.</desc>
    <defs></defs>
    <g id="Symbols" stroke="none" stroke-width="1" fill="none" fill-rule="evenodd">
        <g id="Footer" transform="translate(-1038.000000, -188.000000)" fill-rule="nonzero" fill="#FFFFFF">
            <g id="Twitter_Logo_WhiteOnBlue" transform="translate(1038.000000, 188.000000)">
                <path d="M9.11837837,23.6124479 C20.0599685,23.6124479 26.0445567,14.5474205 26.0445567,6.68626956 C26.0445567,6.4287931 26.0445567,6.17247643 26.0271596,5.91731957 C27.1914072,5.07519854 28.1964052,4.03249833 28.9950979,2.83804018 C27.9093811,3.3191289 26.7576381,3.63462673 25.5783155,3.77400194 C26.8201686,3.03054682 27.7496117,1.86122083 28.1936733,0.483638232 C27.0259335,1.17656925 25.7483962,1.66491246 24.416192,1.92759411 C22.5721998,-0.0331770274 19.6421136,-0.513082656 17.2689575,0.756980735 C14.8958015,2.02704413 13.6697679,4.73121795 14.278346,7.35315682 C9.49519372,7.11336682 5.03874002,4.85415431 2.01805881,1.13776764 C0.439128155,3.85593597 1.24561535,7.33327717 3.85982743,9.07894504 C2.91312728,9.05088654 1.98706812,8.79550425 1.15980391,8.33435093 C1.15980391,8.35870681 1.15980391,8.38422249 1.15980391,8.40973818 C1.16057882,11.2415073 3.15669803,13.6805078 5.93239702,14.2412323 C5.05659382,14.4800823 4.13769393,14.5149974 3.24629116,14.343295 C4.02561899,16.7666158 6.2589683,18.4267139 8.80407151,18.4745165 C6.6975603,20.1300577 4.09533664,21.0287849 1.41612058,21.0260852 C0.942808741,21.0251765 0.469957261,20.9965188 0,20.9402597 C2.72047776,22.6860853 5.88590443,23.6121196 9.11837837,23.6078087" id="Shape"></path>
            </g>
        </g>
    </g>
</svg>