<?xml version="1.0" encoding="UTF-8"?>
<svg width="29px" height="29px" viewBox="0 0 29 29" version="1.1" xmlns="http://www.w3.org/2000/svg" xmlns:xlink="http://www.w3.org/1999/xlink">
    <!-- Generator: Sketch 46 (44423) - http://www.bohemiancoding.com/sketch -->
    <title>Facebook logo</title>
    <desc>Created with Sketch.</desc>
    <defs></defs>
    <g id="Symbols" stroke="none" stroke-width="1" fill="none" fill-rule="evenodd">
        <g id="Footer" transform="translate(-1038.000000, -141.000000)" fill="#FEFEFE">
            <g id="Facebook-logo">
                <path d="M1065.39937,141 L1039.60052,141 C1038.71648,141 1038,141.716484 1038,142.600517 L1038,168.399374 C1038,169.283299 1038.71648,170 1039.60052,170 L1053.48981,170 L1053.48981,158.769651 L1049.7105,158.769651 L1049.7105,154.392949 L1053.48981,154.392949 L1053.48981,151.165293 C1053.48981,147.419671 1055.77747,145.380071 1059.11889,145.380071 C1060.71952,145.380071 1062.09512,145.499159 1062.49595,145.552401 L1062.49595,149.466876 L1060.17852,149.467963 C1058.36134,149.467963 1058.0094,150.33146 1058.0094,151.598617 L1058.0094,154.392949 L1062.3434,154.392949 L1061.77914,158.769651 L1058.0094,158.769651 L1058.0094,170 L1065.39937,170 C1066.2833,170 1066.99989,169.283299 1066.99989,168.399374 L1066.99989,142.600517 C1066.99989,141.716484 1066.2833,141 1065.39937,141"></path>
            </g>
        </g>
    </g>
</svg>